<svg id="Capa_1" enable-background="new 0 0 509.807 509.807" height="512" viewBox="0 0 509.807 509.807" width="512" xmlns="http://www.w3.org/2000/svg"><g><g><path d="m444.665 195.089-42.973-1.68-1.68-42.973c-.021-.548.18-1.071.558-1.449l58.678-58.678c1.235-1.235 3.42-.307 3.49 1.482l1.527 39.045 39.045 1.527c1.79.07 2.718 2.255 1.482 3.49l-58.678 58.678c-.378.378-.901.579-1.449.558z" fill="#fbf3e6"/><path d="m462.915 176.839-42.973-1.68-.759-19.411c-.123-3.136 1.069-6.18 3.288-8.399l40.843-40.843-.575-14.716c-.07-1.79-2.255-2.718-3.49-1.482l-58.678 58.678c-.378.378-.58.901-.558 1.449l1.68 42.973 42.973 1.68c.548.021 1.071-.18 1.449-.558l18.25-18.25c-.379.379-.902.58-1.45.559z" fill="#fcefd8"/><path d="m359.338 110.037-42.973-1.68-1.68-42.973c-.021-.548.18-1.071.558-1.449l58.678-58.678c1.235-1.235 3.42-.307 3.49 1.482l1.527 39.045 39.045 1.527c1.79.07 2.718 2.255 1.482 3.49l-58.678 58.678c-.378.378-.901.579-1.449.558z" fill="#fbf3e6"/><path d="m329.116 94.045-1.107-17.562c-.34-5.396 1.655-10.678 5.478-14.501l44.35-44.35-.426-10.894c-.07-1.79-2.255-2.718-3.49-1.482l-47.531 47.531-11.147 11.147c-.378.378-.58.901-.558 1.449l1.68 42.973 42.973 1.68c.548.021 1.071-.18 1.449-.558l12.666-12.666c-.089.006-.176.016-.267.01z" fill="#fcefd8"/><path d="m417.411 142.45-49.292-.763-.763-49.292c-.01-.629.236-1.235.68-1.679l68.964-68.961c1.452-1.452 3.935-.446 3.967 1.607l.693 44.786 44.786.693c2.053.032 3.059 2.515 1.607 3.967l-68.963 68.962c-.444.445-1.05.69-1.679.68z" fill="#fbf3e6"/><path d="m388.349 92.559 52.87-52.87-.253-16.327c-.032-2.053-2.515-3.059-3.967-1.607l-68.962 68.962c-.445.445-.69 1.05-.68 1.679l.763 49.292 49.291.763c.629.01 1.235-.236 1.679-.68l15.595-15.595-49.155-3.255-1.287-19.443c-.268-4.062 1.228-8.041 4.106-10.919z" fill="#fcefd8"/><path d="m372.073 272.553 5.751 5.751c3.803 3.803 3.803 9.969 0 13.772l-11.438 11.438c-3.803 3.803-9.969 3.803-13.772 0l-15.968-15.968-34.004-32.987 29.079-25.351z" fill="#dcc9c0"/><path d="m169.029 456.6c3.803 3.803 9.969 3.803 13.772 0l11.438-11.438c3.803-3.803 3.803-9.969 0-13.772l-29.902-30.281-26.013 24.814z" fill="#dcc9c0"/><g><path d="m259.492 129.471 116.11 124.75-21.74 16.11-266.42 226.09c-9.94 8.44-24.68 7.83-33.9-1.38l-38.77-38.78c-9.22-9.21-9.82-23.96-1.39-33.9l226.09-266.41z" fill="#c3a394"/></g><g id="XMLID_7_"><g><g fill="#b79180"><path d="m180.392 417.541-42.04 35.68-126.64-.67c-6.17-9.13-5.7-21.5 1.67-30.19l4.82-5.68z"/><path d="m291.251 163.594-31.759-34.122-20.02 26.48-12.981 15.295-213.109 251.114c-8.43 9.94-7.83 24.69 1.39 33.9l38.77 38.78c9.22 9.21 23.96 9.82 33.9 1.38l13.928-11.819-28.333-28.341c-9.22-9.21-9.82-23.96-1.39-33.9l157.822-185.967c15.371-18.112 42.932-19.238 59.73-2.441l49.362 49.363 15.301-12.985 21.74-16.11z"/><path d="m288.262 326.001-42.04 35.67-180.52-.95 30.32-35.74z"/></g><path d="m96.024 324.981-5.287 6.23-25.035 29.51 57.997.305 30.328-35.737z" fill="#ab806b"/><path d="m353.862 270.331-.02.01-.18-.21-210.14-1.11 30.32-35.74h.01l143.72.76h39.25l18.78 20.18z" fill="#b79180"/><g fill="#ab806b"><path d="m173.852 233.281h-.006l-9.74 11.477-20.583 24.263 57.997.306 27.949-32.933c.839-.989 1.721-1.918 2.629-2.805z"/><path d="m356.819 234.041h-39.248l-28.44-.15c.022.021.044.041.066.063l36.027 36.027 28.437.15.18.21.02-.01 21.74-16.11z"/></g></g></g><path d="m356.082 272.553-118.121-118.12c-4.416-4.416-4.416-11.575 0-15.991l11.904-11.904c4.416-4.416 11.575-4.416 15.991 0l118.121 118.121c4.416 4.416 4.416 11.575 0 15.991l-11.904 11.904c-4.416 4.415-11.575 4.415-15.991-.001z" fill="#c3a394"/><path d="m76.206 416.989-58.004-.308-4.82 5.68c-7.37 8.69-7.84 21.06-1.67 30.19l58.491.309c-6.391-9.156-6.014-21.706 1.443-30.499z" fill="#ab806b"/></g><path d="m509.116 130.807c-1.421-3.511-4.787-5.817-8.575-5.876l-29.527-.457-.367-23.654 22.709-22.709c2.796-2.796 3.643-6.971 2.158-10.635-1.485-3.665-4.999-6.073-8.953-6.134l-37.516-.581-.58-37.517c-.062-3.954-2.471-7.468-6.136-8.952-3.663-1.483-7.838-.636-10.634 2.159l-22.709 22.709-23.654-.366-.456-29.524c-.057-3.788-2.362-7.155-5.873-8.578-3.515-1.424-7.511-.611-10.188 2.067l-21.735 21.735c-2.929 2.929-2.929 7.678 0 10.606 2.93 2.929 7.678 2.929 10.607 0l12.396-12.396.316 20.417-45.65 45.65-.316-20.417 10.576-10.577c2.929-2.929 2.929-7.678-.001-10.606-2.928-2.93-7.677-2.929-10.606 0l-12.252 12.253c-1.787 1.79-2.79 4.266-2.752 6.796l.578 37.325-28.252 28.252-10.564-10.564c-7.332-7.333-19.264-7.33-26.598 0l-11.903 11.904c-3.552 3.552-5.508 8.275-5.508 13.299 0 3.371.899 6.597 2.552 9.434l-222.039 261.643c-10.877 12.817-10.086 32.169 1.801 44.056l38.774 38.774c6.281 6.281 14.647 9.464 23.031 9.464 7.482 0 14.979-2.535 21.023-7.664l60.408-51.264 11.024 11.023c3.256 3.256 7.585 5.05 12.189 5.05s8.934-1.793 12.188-5.049l.416-.416 16.918 16.918c11.291 11.292 26.304 17.51 42.272 17.51s30.981-6.218 42.272-17.51l94.397-94.397c23.309-23.309 23.309-61.235 0-84.544l-1.668-1.668.416-.416c6.721-6.721 6.721-17.657 0-24.378l-.448-.448 6.6-6.6c3.553-3.552 5.509-8.275 5.509-13.299s-1.956-9.747-5.508-13.299l-11.271-11.271c5.997-5.996 16.479-16.479 28.253-28.252l37.328.578c.047.001.093.001.14.001 2.481 0 4.9-1 6.657-2.756l56.66-56.661c2.68-2.678 3.493-6.677 2.071-10.188zm-53.038-2.005-45.65 45.65-.315-20.419 4.132-4.132 3.05.047c.05.001.1.001.149.001 2.593 0 5.119-1.045 6.95-2.877l31.479-31.479zm-40.741 6.115-29.385-.454 58.766-58.766 29.385.455zm18.319-99.213.455 29.385-58.766 58.766-.455-29.384zm-39.442 18.23-31.474 31.474c-1.872 1.869-2.923 4.458-2.882 7.104l.047 3.051-4.132 4.132-20.418-.316 45.65-45.65zm-73.632 60.218 37.328.577c.047.001.093.001.14.001.727 0 1.447-.096 2.148-.261l.374 24.159-36.009 36.009-32.233-32.233zm14.872 148.38-175.804-.93 17.655-20.804 137.14.726zm35.513 19.522 1.553 1.553c.542.542.655 1.16.655 1.583s-.113 1.041-.655 1.583l-11.438 11.438c-.541.542-1.159.655-1.582.655s-1.041-.114-1.582-.655l-11.623-11.623 7.445-6.318c3.043 2.011 6.606 3.094 10.338 3.094 2.398.001 4.722-.457 6.889-1.31zm-85.438 36.431-50.84-.269h-.041c-4.123 0-7.478 3.332-7.499 7.46-.021 4.142 3.318 7.518 7.46 7.54l33.353.177-24.472 20.767-161.662-.856 17.655-20.804 103.165.546h.041c4.123 0 7.478-3.332 7.499-7.46.021-4.142-3.318-7.518-7.46-7.54l-90.572-.479 34.821-41.032 186.819.988zm-107.873 91.544-143.323-.759 34.821-41.032 156.769.83zm-158.555 17.19 2.559-3.016 138.43.733-24.473 20.768-119.393-.632c-2.32-5.868-1.411-12.8 2.877-17.853zm63.488 63.487c-6.907 5.86-17.337 5.436-23.743-.97l-29.595-29.594 88.8.47zm93.326-38.754c-.423 0-1.04-.114-1.582-.656l-10.156-10.156 15.798-13.407 8.96 8.96c.542.542.655 1.16.655 1.583s-.113 1.041-.654 1.583l-11.439 11.438c-.542.541-1.159.655-1.582.655zm197.857-141.882c17.461 17.46 17.461 45.871 0 63.331l-94.397 94.397c-8.458 8.458-19.703 13.116-31.665 13.116s-23.207-4.658-31.665-13.116l-16.918-16.918.416-.416c6.721-6.721 6.721-17.657 0-24.378l-8.092-8.092 143.369-121.667 12.49 12.49c3.361 3.361 7.775 5.041 12.189 5.041s8.828-1.68 12.189-5.041l.416-.416zm6.016-57.416c0 .589-.145 1.722-1.115 2.692l-11.903 11.904c-.97.97-2.103 1.115-2.691 1.115-.59 0-1.723-.145-2.692-1.115l-83.082-83.082c-2.93-2.929-7.678-2.929-10.607 0s-2.929 7.678 0 10.606l31.669 31.669-109.387-.579 49.949-58.859 5.108 5.108c2.93 2.929 7.678 2.929 10.607 0s2.929-7.678 0-10.606l-12.378-12.378c-.971-.971-1.115-2.104-1.115-2.692s.145-1.722 1.115-2.692l11.902-11.904c1.485-1.485 3.899-1.486 5.385 0l118.121 118.122c.969.969 1.114 2.102 1.114 2.691zm-44.618-67.409c7.136-7.136 20.706-20.706 36.008-36.009l24.16.374c-.177.748-.273 1.516-.26 2.29l.577 37.327-28.252 28.252zm106.283.13-20.418-.316c19.617-19.616 39.175-39.175 45.651-45.65l20.418.316z"/></g></svg>